
<svg width="150" height="43" xmlns="http://www.w3.org/2000/svg">
 <defs>
  <linearGradient id="linearGradient-1" y2="100%" x2="100%" y1="0%" x1="0%">
   <stop offset="0%" stop-color="#4854A2"/>
   <stop offset="100%" stop-color="#772088"/>
  </linearGradient>
 </defs>
 <g>
  <title>background</title>
  <rect fill="none" id="canvas_background" height="402" width="582" y="-1" x="-1"/>
 </g>
 <g>
  <title>Layer 1</title>
  <g fill-rule="evenodd" fill="none" id="logo">
   <g id="logo-classic">
    <g id="prom">
     <g fill="#000000" id="Group-10">
      <path id="Fill-1" d="m58.81976,25.47288c1.11885,-1.11885 1.6559,-2.46147 1.6559,-4.02856c0,-1.56639 -0.53705,-2.90901 -1.6559,-3.98311c-1.11885,-1.11885 -2.46147,-1.6559 -4.07331,-1.6559c-1.65453,0 -3.04259,0.53705 -4.20551,1.6559c-1.11885,1.0741 -1.70203,2.41672 -1.70203,3.98311c0,1.56709 0.58318,2.90971 1.70203,4.02856c1.16292,1.07479 2.55098,1.61115 4.20551,1.61115c1.61184,0 2.95446,-0.53636 4.07331,-1.61115l0,0zm-16.24643,15.88771l0,-31.19361l6.66837,0l0,2.95377c0.67131,-1.96987 3.3118,-3.35656 6.7138,-3.35656c3.17754,0 5.86279,1.11886 7.96623,3.40063c2.14819,2.2377 3.22229,5.01246 3.22229,8.2795c0,3.26843 -1.0741,6.0425 -3.22229,8.32496c-2.10344,2.2377 -4.78869,3.35655 -7.96623,3.35655c-3.402,0 -6.04249,-1.38669 -6.7138,-3.35655l0,11.59131l-6.66837,0z"/>
      <path id="Fill-3" d="m70.58919,32.72325l0,-22.55744l6.66905,0l0,3.08941c1.02935,-2.28384 3.44538,-3.58171 6.5341,-3.58171c0.44754,0 1.02935,0.04545 1.74541,0.13496l0,6.26557c-0.672,-0.13426 -1.43213,-0.22377 -2.2377,-0.22377c-3.8041,0 -6.04181,2.1482 -6.04181,5.86279l0,11.01019l-6.66905,0z"/>
      <path id="Fill-5" d="m95.15961,25.65176c1.11885,1.11885 2.50691,1.70066 4.16213,1.70066c1.6559,0 3.04328,-0.58181 4.16213,-1.70066c1.11885,-1.16292 1.70203,-2.55098 1.70203,-4.20688c0,-1.65659 -0.58318,-3.04328 -1.70203,-4.16214c-1.11885,-1.16429 -2.50623,-1.74472 -4.16213,-1.74472c-1.65522,0 -3.04328,0.58043 -4.16213,1.74472c-1.11886,1.11886 -1.70066,2.50555 -1.70066,4.16214c0,1.6559 0.5818,3.08803 1.70066,4.20688m13.02413,-12.6661c2.46147,2.28246 3.66983,5.10266 3.66983,8.45922c0,3.35655 -1.20836,6.17606 -3.66983,8.50327c-2.46217,2.28315 -5.41594,3.44607 -8.862,3.44607c-3.49013,0 -6.4439,-1.16292 -8.90676,-3.44607c-2.41534,-2.32721 -3.62508,-5.14672 -3.62508,-8.50327c0,-3.35656 1.20974,-6.17676 3.62508,-8.45922c2.46286,-2.32652 5.41663,-3.49082 8.90676,-3.49082c3.44606,0 6.39983,1.1643 8.862,3.49082"/>
      <path id="Fill-7" d="m115.34329,32.72325l0,-22.55744l6.66905,0l0,2.8202c0.84964,-1.9685 3.1321,-3.3125 5.86279,-3.3125c3.04328,0 5.10128,1.20837 6.13062,3.58171c1.2538,-2.37334 3.75935,-3.58171 7.51938,-3.58171c5.14741,0 8.01167,3.49151 8.01167,9.3543l0,13.69544l-6.66836,0l0,-12.88987c0,-2.64049 -1.20836,-4.25164 -3.35656,-4.25164c-2.19295,0 -3.76003,1.83561 -3.76003,4.47541l0,12.6661l-6.66836,0l0,-12.88987c0,-2.64049 -1.20836,-4.25164 -3.35656,-4.25164c-2.14888,0 -3.71459,1.83561 -3.71459,4.47541l0,12.6661l-6.66905,0z"/>
     </g>
     <path fill="url(#linearGradient-1)" id="Fill-11" d="m0,33.04897l33.04918,0l0,-33.04918l-33.04918,0l0,33.04918zm7.57377,-7.57377l17.90164,0l0,-17.90164l-17.90164,0l0,17.90164z"/>
    </g>
   </g>
  </g>
 </g>
</svg>
